<svg width="20" height="20" viewBox="0 0 20 20" fill="none" xmlns="http://www.w3.org/2000/svg">
<path fill-rule="evenodd" clip-rule="evenodd" d="M2.5 17.7083C2.5 17.3631 2.75584 17.0833 3.07143 17.0833H15.2619C15.5775 17.0833 15.8333 17.3631 15.8333 17.7083C15.8333 18.0535 15.5775 18.3333 15.2619 18.3333H3.07143C2.75584 18.3333 2.5 18.0535 2.5 17.7083Z" fill="white" style="fill:white;fill-opacity:1;"/>
<path d="M8.81079 13.1834C9.02291 13.018 9.21532 12.8256 9.60008 12.4408L14.5307 7.51023C13.8596 7.23093 13.0648 6.77216 12.3131 6.02047C11.5613 5.26867 11.1025 4.47374 10.8232 3.80262L5.89256 8.73329L5.89254 8.73331C5.50779 9.11806 5.31539 9.31045 5.14994 9.52258C4.95477 9.77281 4.78743 10.0436 4.6509 10.33C4.53517 10.5729 4.44913 10.831 4.27705 11.3472L3.36964 14.0695C3.28496 14.3235 3.35108 14.6036 3.54043 14.7929C3.72978 14.9823 4.00986 15.0484 4.2639 14.9637L6.98613 14.0563C7.50235 13.8842 7.76048 13.7982 8.00333 13.6825C8.2898 13.5459 8.56055 13.3786 8.81079 13.1834Z" fill="white" style="fill:white;fill-opacity:1;"/>
<path d="M15.8988 6.14206C16.9226 5.11825 16.9226 3.45834 15.8988 2.43454C14.875 1.41074 13.2151 1.41074 12.1913 2.43454L11.5999 3.0259C11.608 3.05035 11.6164 3.07514 11.6252 3.10026C11.8419 3.72502 12.2509 4.54402 13.0202 5.31337C13.7896 6.08271 14.6086 6.49168 15.2333 6.70843C15.2583 6.7171 15.283 6.72547 15.3074 6.73353L15.8988 6.14206Z" fill="white" style="fill:white;fill-opacity:1;"/>
</svg>
