<svg width="14" height="16" viewBox="0 0 14 16" fill="none" xmlns="http://www.w3.org/2000/svg">
<path d="M4.1625 14.5935C4.81668 15.4488 5.84437 16 7 16C8.15564 16 9.18332 15.4488 9.8375 14.5935C7.95389 14.856 6.04611 14.856 4.1625 14.5935Z" fill="white" style="fill:white;fill-opacity:1;"/>
<path d="M12.2493 5.6V6.16328C12.2493 6.83927 12.4369 7.50014 12.7884 8.0626L13.6497 9.44092C14.4365 10.6999 13.8359 12.4111 12.4675 12.8092C8.88787 13.8507 5.11213 13.8507 1.5325 12.8092C0.164147 12.4111 -0.436471 10.6999 0.350279 9.44092L1.21162 8.0626C1.56311 7.50014 1.75068 6.83927 1.75068 6.16328V5.6C1.75068 2.5072 4.10088 0 7 0C9.89912 0 12.2493 2.50721 12.2493 5.6Z" fill="white" style="fill:white;fill-opacity:1;"/>
</svg>
